<svg width="6" height="6" viewBox="0 0 6 6" fill="none" xmlns="http://www.w3.org/2000/svg">
<g clip-path="url(#clip0_24_206)">
<path d="M2.98747 0.00270132C2.99768 0.00272384 3.00789 0.00273508 3.0181 0.00274553C3.11266 0.00288624 3.20672 0.00385313 3.30074 0.014928C3.30991 0.0159976 3.31908 0.0170094 3.32826 0.0180128C3.42525 0.0287166 3.52119 0.0442935 3.61678 0.0638106C3.61971 0.0644063 3.62263 0.0650021 3.62564 0.0656158C3.86165 0.114061 4.0908 0.194053 4.3074 0.299183C4.31207 0.30144 4.31673 0.303697 4.32154 0.306022C4.38604 0.337315 4.44921 0.370534 4.511 0.406896C4.51473 0.409095 4.51847 0.411294 4.52232 0.41356C4.66017 0.495143 4.79099 0.587838 4.91419 0.69014C4.91768 0.693031 4.91768 0.693031 4.92123 0.69598C4.94777 0.718043 4.97372 0.740617 4.9991 0.764006C5.00773 0.771858 5.01645 0.779558 5.02526 0.78721C5.06637 0.823056 5.10559 0.861117 5.14423 0.899582C5.14678 0.902109 5.14932 0.904636 5.15195 0.90724C5.16684 0.922172 5.18093 0.937593 5.19472 0.953545C5.20582 0.966217 5.21747 0.978365 5.22906 0.990589C5.24836 1.01109 5.26679 1.03196 5.28437 1.05397C5.29303 1.06465 5.30193 1.07505 5.31094 1.08543C5.33365 1.11159 5.35527 1.13831 5.37609 1.16599C5.3815 1.17318 5.38696 1.18033 5.39242 1.18749C5.46543 1.28345 5.5319 1.384 5.59283 1.48801C5.59561 1.4927 5.59561 1.4927 5.59845 1.49749C5.75857 1.76813 5.8684 2.06479 5.99603 2.81248C5.99627 2.81673 5.99627 2.81673 5.99653 2.82107C5.99988 2.87955 6.00082 2.93792 6.00077 2.99649C6.00076 3.00102 6.00076 3.00555 6.00076 3.01021C6.00065 3.08817 5.9987 3.16565 5.99203 3.24333C5.99178 3.24629 5.99153 3.24924 5.99127 3.25228C5.96297 3.5791 5.88537 3.90471 5.7187 4.27191C5.71254 4.28466 5.70653 4.29748 5.70055 4.31031C5.67563 4.36355 5.64822 4.41478 5.61876 4.46563C5.61158 4.47815 5.60469 4.49081 5.59781 4.5035C5.49205 4.69792 5.35085 4.8785 5.19986 5.03984C5.19336 5.04681 5.18691 5.05381 5.18045 5.06081C5.15555 5.08778 5.13023 5.11427 5.10431 5.14027C5.10175 5.14285 5.09919 5.14543 5.09655 5.14809C5.08151 5.16307 5.06599 5.17725 5.04992 5.19112C5.0365 5.20288 5.02367 5.21525 5.01075 5.22754C4.98942 5.24766 4.96782 5.26699 4.94486 5.28526C4.9351 5.2931 4.92558 5.30115 4.91609 5.30932C4.88596 5.3352 4.85462 5.35932 4.82289 5.3832C4.8148 5.3893 4.80673 5.39543 4.79867 5.40158C4.65493 5.51074 4.50019 5.60324 4.33934 5.68482C4.33479 5.68713 4.33023 5.68944 4.32554 5.69182C4.03118 5.84045 3.70862 5.93347 3.33734 5.98103C3.33222 5.98163 3.3271 5.98224 3.32182 5.98286C3.30438 5.98478 3.28695 5.98647 3.26948 5.98801C3.26363 5.98853 3.26363 5.98853 3.25765 5.98907C3.17592 5.9961 3.09455 5.99744 3.01257 5.99726C3.00236 5.99724 2.99215 5.99723 2.98194 5.99722C2.88738 5.99708 2.79332 5.99611 2.6993 5.98503C2.69013 5.98396 2.68095 5.98295 2.67178 5.98195C2.57479 5.97125 2.47885 5.95567 2.38325 5.93615C2.38033 5.93556 2.37741 5.93496 2.3744 5.93435C2.13839 5.8859 1.90923 5.80591 1.69263 5.70078C1.68797 5.69852 1.6833 5.69626 1.6785 5.69394C1.614 5.66265 1.55083 5.62943 1.48904 5.59307C1.4853 5.59087 1.48157 5.58867 1.47772 5.5864C1.33987 5.50482 1.20905 5.41212 1.08585 5.30982C1.08352 5.30789 1.0812 5.30597 1.0788 5.30398C1.05227 5.28192 1.02632 5.25934 1.00094 5.23596C0.992303 5.2281 0.983583 5.2204 0.974772 5.21275C0.933669 5.17691 0.894448 5.13884 0.855807 5.10038C0.851986 5.09659 0.851986 5.09659 0.848088 5.09272C0.833195 5.07779 0.819109 5.06237 0.80532 5.04642C0.794215 5.03374 0.782569 5.0216 0.770977 5.00937C0.751681 4.98887 0.73325 4.968 0.715665 4.94599C0.707006 4.93532 0.698108 4.92491 0.689095 4.91453C0.66639 4.88838 0.644763 4.86166 0.62395 4.83397C0.618536 4.82678 0.613078 4.81963 0.607616 4.81248C0.534608 4.71651 0.468141 4.61596 0.407204 4.51195C0.405352 4.50882 0.403499 4.50569 0.40159 4.50247C0.241468 4.23183 0.131632 3.93517 0.0040106 3.18748C0.00376329 3.18323 0.00376317 3.18323 0.00351087 3.17889C0.000154174 3.12041 -0.000788109 3.06204 -0.000729917 3.00347C-0.000726299 2.99668 -0.000726299 2.99668 -0.000722608 2.98975C-0.000610573 2.91179 0.00134064 2.83431 0.00800262 2.75663C0.00825477 2.75368 0.00850692 2.75072 0.00876671 2.74768C0.0370619 2.42086 0.114663 2.09525 0.281339 1.72805C0.287495 1.7153 0.293505 1.70249 0.299482 1.68965C0.324402 1.63641 0.351813 1.58518 0.381277 1.53433C0.388452 1.52181 0.395346 1.50915 0.402223 1.49646C0.507987 1.30203 0.649198 1.12145 0.800192 0.9601C0.806638 0.953189 0.813043 0.946242 0.819442 0.939288C0.845022 0.911572 0.871091 0.884404 0.897723 0.857694C0.900475 0.854926 0.903226 0.852158 0.906061 0.849306C0.921641 0.833783 0.937648 0.819019 0.954305 0.804659C0.966963 0.793599 0.979084 0.781983 0.991286 0.770426C1.01191 0.751044 1.0329 0.732505 1.05503 0.71484C1.06483 0.706946 1.07442 0.698842 1.08396 0.690635C1.11408 0.664761 1.14542 0.640636 1.17715 0.616758C1.18524 0.610659 1.19331 0.604527 1.20137 0.598385C1.3451 0.489217 1.49985 0.396723 1.6607 0.31514C1.66525 0.31283 1.6698 0.31052 1.6745 0.308139C1.96885 0.15951 2.29142 0.0664959 2.66269 0.0189303C2.67038 0.0180258 2.67038 0.0180258 2.67822 0.0171031C2.69565 0.0151821 2.71309 0.0134941 2.73056 0.0119489C2.73446 0.011601 2.73836 0.0112531 2.74238 0.0108947C2.82412 0.00385991 2.90548 0.0025176 2.98747 0.00270132Z" fill="#E84142"/>
<path d="M3.08618 1.14656C3.12442 1.17709 3.15042 1.2226 3.174 1.26464C3.17788 1.27145 3.18175 1.27825 3.18563 1.28506C3.18965 1.29213 3.19365 1.2992 3.19765 1.30628C3.20947 1.3272 3.22144 1.34804 3.23339 1.36889C3.24008 1.38057 3.24676 1.39226 3.25344 1.40395C3.25477 1.40628 3.2561 1.40861 3.25746 1.41101C3.26284 1.42042 3.26822 1.42984 3.27359 1.43925C3.28298 1.45568 3.29236 1.47211 3.30175 1.48854C3.30307 1.49086 3.30439 1.49317 3.30576 1.49556C3.32488 1.52901 3.34409 1.5624 3.36337 1.59575C3.39073 1.64308 3.4179 1.69052 3.445 1.73799C3.45465 1.75489 3.46433 1.77179 3.47401 1.78868C3.53043 1.8871 3.53043 1.8871 3.55666 1.93499C3.561 1.94286 3.56539 1.95069 3.56979 1.95852C3.62242 2.05313 3.64538 2.17127 3.61671 2.27786C3.61544 2.28183 3.61418 2.28581 3.61287 2.2899C3.61161 2.29417 3.61034 2.29843 3.60904 2.30282C3.5843 2.37883 3.54075 2.44839 3.5011 2.5173C3.49319 2.53109 3.48529 2.54489 3.4774 2.55869C3.47449 2.56376 3.47449 2.56376 3.47152 2.56894C3.4535 2.60041 3.4358 2.63206 3.41811 2.66372C3.40143 2.69353 3.38453 2.72322 3.36752 2.75286C3.35199 2.77996 3.3367 2.80719 3.32146 2.83445C3.3023 2.86872 3.28297 2.90289 3.26344 2.93695C3.24222 2.97396 3.22124 3.0111 3.20026 3.04825C3.18944 3.06742 3.1786 3.08657 3.16776 3.10573C3.16344 3.11337 3.15912 3.12102 3.15479 3.12867C3.06397 3.28924 3.06397 3.28924 2.97315 3.44981C2.97101 3.4536 2.96887 3.45738 2.96667 3.46128C2.96234 3.46892 2.95802 3.47656 2.9537 3.4842C2.94283 3.50341 2.93197 3.52263 2.92112 3.54185C2.90039 3.57854 2.8796 3.61521 2.85863 3.65177C2.8413 3.682 2.82422 3.71236 2.80724 3.74278C2.78057 3.79049 2.75341 3.83789 2.72592 3.88513C2.72114 3.89335 2.71638 3.90157 2.71162 3.9098C2.68539 3.9552 2.65887 3.99965 2.62685 4.04123C2.62463 4.04418 2.62242 4.04713 2.62014 4.05016C2.56226 4.12196 2.46439 4.17037 2.37535 4.18485C2.37182 4.1855 2.36829 4.18614 2.36465 4.18681C2.32053 4.19414 2.27696 4.19398 2.23235 4.19392C2.22367 4.19394 2.21498 4.19396 2.2063 4.19399C2.18287 4.19404 2.15944 4.19404 2.13601 4.19403C2.11638 4.19403 2.09676 4.19405 2.07714 4.19407C2.03082 4.19411 1.98451 4.19411 1.93819 4.19409C1.89054 4.19406 1.84288 4.19411 1.79522 4.1942C1.75418 4.19427 1.71314 4.19429 1.6721 4.19428C1.64764 4.19427 1.62319 4.19428 1.59873 4.19434C1.57572 4.19439 1.55272 4.19438 1.52971 4.19433C1.52131 4.19432 1.51291 4.19433 1.50451 4.19436C1.36898 4.19486 1.36898 4.19486 1.32047 4.14832C1.29577 4.12042 1.28206 4.08654 1.27954 4.04921C1.28562 3.96705 1.34641 3.88679 1.3866 3.81746C1.39939 3.79535 1.41207 3.77318 1.42475 3.75101C1.4261 3.74865 1.42745 3.74628 1.42885 3.74385C1.45048 3.70605 1.47185 3.6681 1.4931 3.63007C1.51545 3.5901 1.53819 3.55036 1.56098 3.51065C1.57146 3.49237 1.58194 3.47408 1.59242 3.45579C1.59377 3.45343 1.59512 3.45107 1.59651 3.44864C1.61814 3.41085 1.6395 3.37291 1.66074 3.3349C1.67726 3.30534 1.69399 3.27591 1.71084 3.24653C1.72519 3.22151 1.73942 3.19642 1.75359 3.1713C1.77167 3.13928 1.78987 3.10734 1.80815 3.07543C1.83007 3.03718 1.85185 2.99885 1.87335 2.96037C1.89802 2.91623 1.92304 2.87232 1.9482 2.82847C1.95869 2.81019 1.96917 2.7919 1.97964 2.77361C1.98099 2.77125 1.98235 2.76889 1.98374 2.76645C2.00537 2.72865 2.02674 2.6907 2.04799 2.65268C2.07034 2.61271 2.09308 2.57297 2.11587 2.53325C2.12635 2.51497 2.13683 2.49669 2.14731 2.4784C2.14866 2.47604 2.15001 2.47368 2.1514 2.47124C2.17303 2.43345 2.19439 2.39552 2.21563 2.35751C2.23215 2.32795 2.24888 2.29852 2.26573 2.26914C2.28008 2.24412 2.29431 2.21903 2.30848 2.19391C2.32656 2.16189 2.34476 2.12994 2.36304 2.09804C2.38496 2.05979 2.40674 2.02146 2.42824 1.98297C2.45291 1.93884 2.47793 1.89492 2.50309 1.85107C2.51358 1.83279 2.52406 1.81451 2.53453 1.79622C2.53588 1.79386 2.53724 1.7915 2.53863 1.78906C2.56026 1.75126 2.58163 1.71331 2.60288 1.67529C2.62523 1.63532 2.64797 1.59558 2.67076 1.55586C2.68124 1.53758 2.69172 1.5193 2.7022 1.50101C2.70355 1.49864 2.70491 1.49627 2.7063 1.49384C2.72543 1.46043 2.74433 1.42691 2.76307 1.39329C2.89984 1.1484 2.89984 1.1484 2.96135 1.12644C3.00507 1.11933 3.04896 1.12127 3.08618 1.14656Z" fill="#FEFEFE"/>
<path d="M4.11363 2.96337C4.15413 2.9976 4.18076 3.04301 4.20777 3.08802C4.21073 3.09292 4.21369 3.09782 4.21665 3.10272C4.24379 3.14777 4.27005 3.19331 4.2962 3.23893C4.30764 3.25883 4.3192 3.27865 4.33078 3.29846C4.33304 3.30233 4.3353 3.3062 4.33763 3.31019C4.359 3.34674 4.38043 3.38326 4.40187 3.41978C4.42189 3.4539 4.44185 3.48805 4.46178 3.52223C4.4801 3.55364 4.4985 3.58501 4.5169 3.61637C4.54238 3.65978 4.56781 3.70322 4.59316 3.74671C4.60235 3.76247 4.61156 3.77822 4.62079 3.79395C4.75132 4.01668 4.75132 4.01668 4.74061 4.07524C4.72917 4.1179 4.70802 4.14919 4.6706 4.17288C4.63271 4.194 4.58552 4.19403 4.54309 4.19384C4.53859 4.19385 4.53409 4.19387 4.52945 4.19388C4.51452 4.19391 4.4996 4.19389 4.48467 4.19386C4.47391 4.19387 4.46314 4.19389 4.45238 4.1939C4.42627 4.19394 4.40015 4.19393 4.37404 4.19391C4.3528 4.19389 4.33155 4.19389 4.31031 4.1939C4.30576 4.1939 4.30576 4.1939 4.30112 4.1939C4.29495 4.1939 4.28879 4.19391 4.28263 4.19391C4.22493 4.19393 4.16724 4.1939 4.10954 4.19386C4.06015 4.19383 4.01076 4.19383 3.96137 4.19387C3.90388 4.19391 3.84639 4.19393 3.7889 4.1939C3.78276 4.1939 3.77662 4.1939 3.77047 4.1939C3.76745 4.1939 3.76443 4.19389 3.76132 4.19389C3.74013 4.19389 3.71894 4.1939 3.69775 4.19392C3.67189 4.19394 3.64603 4.19393 3.62016 4.19389C3.60699 4.19387 3.59382 4.19386 3.58065 4.19389C3.42131 4.19413 3.42131 4.19413 3.37444 4.15318C3.3448 4.1206 3.32994 4.0834 3.33112 4.03943C3.33624 4.00577 3.34836 3.97677 3.36446 3.94698C3.36732 3.94162 3.36732 3.94162 3.37023 3.93614C3.39173 3.89617 3.41476 3.85708 3.43787 3.81802C3.44966 3.79806 3.46132 3.77802 3.47299 3.75799C3.47765 3.75 3.48232 3.74201 3.48698 3.73402C3.49044 3.72809 3.49044 3.72809 3.49397 3.72205C3.5009 3.71018 3.50783 3.69832 3.51477 3.68646C3.53873 3.64547 3.56258 3.60441 3.58627 3.56326C3.60679 3.52761 3.6276 3.49214 3.64864 3.45679C3.67973 3.40454 3.71017 3.35193 3.74046 3.29921C3.77881 3.23247 3.81749 3.16595 3.85698 3.09988C3.8636 3.0888 3.87017 3.07769 3.87673 3.06658C3.94001 2.96017 3.94001 2.96017 3.9932 2.94562C4.03406 2.94004 4.07925 2.93821 4.11363 2.96337Z" fill="#FEFEFE"/>
</g>
<defs>
<clipPath id="clip0_24_206">
<rect width="6" height="6" fill="white"/>
</clipPath>
</defs>
</svg>
