<svg width="141" height="27" viewBox="0 0 141 27" fill="none" xmlns="http://www.w3.org/2000/svg">
<path d="M56.2009 16.1882H48.5772L47.0206 19.7206H45.3242L51.5908 5.75056H53.2472L59.4938 19.7206H57.7575L56.2009 16.1882ZM55.5223 14.6515L52.3691 7.56666L49.2558 14.6515H55.5223Z" fill="black"/>
<path d="M65.665 19.7206H64.0484L59.8774 9.20315H61.5338L64.8866 18.1041L68.2195 9.20315H69.7961L65.665 19.7206Z" fill="black"/>
<path d="M78.5045 19.7206V18.1041C77.6662 19.2416 76.3291 19.8004 74.6527 19.8004C72.4774 19.8004 71.0804 18.4034 71.0804 16.5873C71.0804 14.7512 72.5373 13.5937 75.0119 13.5738H78.4645V12.9551C78.4645 11.4184 77.5066 10.5004 75.6506 10.5004C74.4931 10.5004 73.4154 10.9394 72.3177 11.6978L71.6591 10.5602C73.0162 9.66217 74.1538 9.14328 75.9499 9.14328C78.5444 9.14328 79.9813 10.5203 80.0012 12.7755L80.0212 19.7206H78.5045ZM74.9521 18.4433C76.7283 18.4433 78.0854 17.5453 78.4845 16.0884V14.8311H75.2115C73.4553 14.8311 72.5373 15.3699 72.5373 16.5274C72.5373 17.685 73.4752 18.4433 74.9521 18.4433Z" fill="black"/>
<path d="M90.1652 5.71064C92.0811 5.71064 93.9371 6.48897 95.2743 7.74628L94.3163 8.96366C93.2386 7.86602 91.7219 7.20743 90.1852 7.20743C87.0319 7.20743 84.4974 9.64221 84.4974 12.7156C84.4974 15.7691 87.0319 18.2238 90.1852 18.2238C91.7219 18.2238 93.2187 17.5852 94.3163 16.5474L95.2942 17.645C93.9172 18.9423 92.0412 19.8004 90.1054 19.8004C86.074 19.8004 82.8808 16.6671 82.8808 12.7156C82.8808 8.80401 86.1139 5.71064 90.1652 5.71064Z" fill="black"/>
<path d="M100.208 19.7206H98.6509V4.91235H100.208V19.7206Z" fill="black"/>
<path d="M108.975 9.16324C112.089 9.16324 114.304 11.3186 114.304 14.4519C114.304 17.6051 112.089 19.7805 108.975 19.7805C105.862 19.7805 103.647 17.6051 103.647 14.4519C103.647 11.3186 105.862 9.16324 108.975 9.16324ZM108.975 10.5802C106.78 10.5802 105.203 12.1768 105.203 14.4718C105.203 16.7869 106.78 18.3835 108.975 18.3835C111.17 18.3835 112.747 16.7869 112.747 14.4718C112.747 12.1768 111.17 10.5802 108.975 10.5802Z" fill="black"/>
<path d="M126.76 9.20315V19.7206H125.204V17.3457C124.505 18.9822 123.108 19.7605 121.212 19.7805C118.757 19.7805 117.281 18.2238 117.281 15.6892V9.20315H118.837V15.2701C118.837 17.1262 119.935 18.2238 121.751 18.2238C123.926 18.1839 125.204 16.6073 125.204 14.3721V9.20315H126.76Z" fill="black"/>
<path d="M140.819 4.91235V19.7206H139.263V17.4654C138.484 18.9423 137.047 19.8004 135.171 19.8004C132.178 19.8004 130.102 17.5852 130.102 14.4519C130.102 11.2987 132.178 9.12332 135.152 9.12332C137.028 9.12332 138.484 9.98148 139.263 11.4783V4.91235H140.819ZM135.471 18.4034C137.686 18.4034 139.263 16.7669 139.263 14.4918C139.263 12.1967 137.686 10.5403 135.471 10.5403C133.236 10.5403 131.659 12.1967 131.659 14.4918C131.659 16.7669 133.236 18.4034 135.471 18.4034Z" fill="black"/>
<path fill-rule="evenodd" clip-rule="evenodd" d="M10.486 8.94041C10.4832 8.84771 10.4819 8.75465 10.4819 8.66124C10.4819 3.87777 14.0882 0 18.5368 0C22.2061 0 25.3024 2.63817 26.2746 6.24673C25.3493 6.45169 24.4661 6.76877 23.6401 7.18298C23.038 4.74244 20.9806 2.94484 18.5351 2.94484C15.6172 2.94484 13.2518 5.50417 13.2518 8.66126C13.2518 9.18908 13.3179 9.7002 13.4417 10.1854C14.6546 10.9897 15.6532 12.0913 16.3336 13.3863L14.1057 15.6584C13.3663 13.3576 11.2087 11.6926 8.6623 11.6926C5.50521 11.6926 2.94588 14.252 2.94588 17.4091C2.94588 20.5662 5.50521 23.1255 8.6623 23.1255C10.0869 23.1255 11.3898 22.6044 12.3908 21.7423L12.3876 21.7397L22.6079 11.3029L22.6122 11.3064C24.1813 9.72628 26.3555 8.74786 28.7583 8.74786C33.5418 8.74786 37.4196 12.6256 37.4196 17.4091C37.4196 22.1926 33.5418 26.0703 28.7583 26.0703C25.4338 26.0703 22.5468 24.1973 21.095 21.449L23.3191 19.1695C24.0614 21.4652 26.2165 23.1255 28.7594 23.1255C31.9165 23.1255 34.4758 20.5662 34.4758 17.4091C34.4758 14.252 31.9165 11.6927 28.7594 11.6927C27.2828 11.6927 25.9369 12.2526 24.9225 13.1716L24.9341 13.181L21.8644 16.3145L20.1241 18.0981L20.1236 18.0915L14.6828 23.6452L14.677 23.6403C13.1189 25.1448 10.9982 26.0703 8.66124 26.0703C3.87777 26.0703 0 22.1926 0 17.4091C0 12.6256 3.87777 8.74785 8.66124 8.74785C9.28721 8.74785 9.89767 8.81426 10.486 8.94041Z" fill="#3A65FF"/>
<path fill-rule="evenodd" clip-rule="evenodd" d="M57.7568 19.7206L56.2001 16.1882H48.5765L47.0198 19.7206H45.3234L51.59 5.75059H53.2464L59.493 19.7206H57.7568ZM48.6948 16.3696L47.1381 19.9021H45.0432L51.4725 5.56916H53.3641L59.7729 19.9021H57.6385L56.0818 16.3696H48.6948ZM52.3683 7.56669L49.255 14.6515H55.5216L52.3683 7.56669ZM52.3694 8.01526L49.5329 14.4701H55.2422L52.3694 8.01526ZM65.7878 19.9021H63.9244L59.6095 9.02175H61.6586L64.8853 17.5881L68.0929 9.02175H70.0615L65.7878 19.9021ZM68.2187 9.20318H69.7953L65.6642 19.7206H64.0477L59.8766 9.20318H61.533L64.8859 18.1041L68.2187 9.20318ZM78.3222 19.9021V18.6031C77.4394 19.5332 76.17 19.9819 74.6519 19.9819C73.525 19.9819 72.5858 19.6195 71.9266 19.0079C71.2669 18.3959 70.8982 17.5438 70.8982 16.5873C70.8982 15.6161 71.2861 14.8135 72.0063 14.2561C72.721 13.7029 73.747 13.4026 75.0097 13.3924L75.0112 13.3924L78.2823 13.3924V12.9551C78.2823 12.2256 78.0562 11.6662 77.6319 11.2868C77.2044 10.9045 76.5502 10.6818 75.6498 10.6818C74.5414 10.6818 73.4994 11.1014 72.4201 11.8471L72.2584 11.9588L71.4157 10.5033L71.5582 10.409C72.9336 9.49884 74.1058 8.96188 75.9492 8.96188C77.2772 8.96188 78.3338 9.31454 79.0625 9.97973C79.7933 10.6467 80.1716 11.607 80.1819 12.7739L80.1819 12.775L80.2024 19.9021H78.3222ZM78.4638 13.5738H75.0112C72.5365 13.5938 71.0796 14.7513 71.0796 16.5873C71.0796 18.4034 72.4766 19.8005 74.6519 19.8005C76.2121 19.8005 77.4785 19.3164 78.3222 18.3323C78.3851 18.259 78.4456 18.1829 78.5037 18.1041V19.7206H80.0204L80.0005 12.7755C79.9805 10.5204 78.5436 9.14331 75.9492 9.14331C74.153 9.14331 73.0154 9.6622 71.6584 10.5603L72.3169 11.6978C72.3672 11.6631 72.4173 11.6291 72.4675 11.5958C73.5134 10.9002 74.5452 10.5004 75.6498 10.5004C77.5058 10.5004 78.4638 11.4184 78.4638 12.9551V13.5738ZM78.4837 16.0884V14.8311H75.2107C73.4545 14.8311 72.5365 15.37 72.5365 16.5275C72.5365 17.685 73.4745 18.4434 74.9513 18.4434C76.7275 18.4434 78.0846 17.5453 78.4837 16.0884ZM78.3023 15.0125H75.2107C74.3451 15.0125 73.7172 15.1464 73.3109 15.3993C72.9192 15.643 72.7179 16.0063 72.7179 16.5275C72.7179 17.0525 72.9284 17.4787 73.3032 17.7777C73.682 18.0798 74.2421 18.2619 74.9513 18.2619C76.6565 18.2619 77.9217 17.4101 78.3023 16.0637V15.0125ZM95.5188 7.72794L94.3306 9.23798L94.1861 9.0908C93.1413 8.02663 91.6707 7.38889 90.1844 7.38889C87.1254 7.38889 84.678 9.7483 84.678 12.7156C84.678 15.6635 87.1258 18.0424 90.1844 18.0424C91.6718 18.0424 93.1247 17.4236 94.1909 16.4156L94.3267 16.2872L95.5463 17.6561L95.4178 17.7771C94.0121 19.1014 92.0931 19.9819 90.1046 19.9819C85.9763 19.9819 82.6986 16.7707 82.6986 12.7156C82.6986 8.69696 86.02 5.52925 90.1644 5.52925C92.1282 5.52925 94.0283 6.32638 95.3978 7.61413L95.5188 7.72794ZM95.2735 7.74631L94.3155 8.9637C94.2729 8.92026 94.2296 8.87752 94.1856 8.83547C93.1178 7.81496 91.6603 7.20746 90.1844 7.20746C87.0312 7.20746 84.4966 9.64224 84.4966 12.7156C84.4966 15.7691 87.0312 18.2238 90.1844 18.2238C91.6596 18.2238 93.098 17.6353 94.1818 16.6701C94.227 16.6299 94.2716 16.589 94.3155 16.5475C94.3155 16.5475 94.3155 16.5475 94.3155 16.5475L95.2934 17.6451C93.9164 18.9423 92.0404 19.8005 90.1046 19.8005C86.0732 19.8005 82.8801 16.6672 82.8801 12.7156C82.8801 8.80404 86.1131 5.71067 90.1644 5.71067C92.0803 5.71067 93.9364 6.489 95.2735 7.74631ZM100.388 19.9021H98.4687V4.73096H100.388V19.9021ZM112.934 10.5035C113.914 11.4711 114.484 12.8412 114.484 14.4519C114.484 16.0723 113.914 17.4522 112.934 18.4273C111.954 19.4023 110.574 19.9619 108.974 19.9619C107.374 19.9619 105.995 19.4023 105.015 18.4273C104.034 17.4522 103.464 16.0723 103.464 14.4519C103.464 12.8412 104.035 11.4711 105.015 10.5035C105.995 9.53615 107.375 8.98184 108.974 8.98184C110.574 8.98184 111.953 9.53615 112.934 10.5035ZM106.395 11.792C105.763 12.4408 105.384 13.3668 105.384 14.4719C105.384 15.5874 105.763 16.5183 106.395 17.1694C107.027 17.8203 107.922 18.2021 108.974 18.2021C110.027 18.2021 110.921 17.8203 111.553 17.1694C112.186 16.5183 112.565 15.5874 112.565 14.4719C112.565 13.3668 112.186 12.4408 111.554 11.792C110.922 11.1435 110.027 10.7617 108.974 10.7617C107.922 10.7617 107.027 11.1435 106.395 11.792ZM126.941 9.02175V19.9021H125.021V18.0812C124.687 18.6066 124.26 19.0208 123.749 19.3251C123.042 19.7469 122.185 19.9517 121.213 19.9619L121.211 19.9619C119.945 19.9619 118.911 19.5593 118.194 18.8108C117.478 18.0633 117.098 16.9914 117.098 15.6893V9.02175H119.018V15.2702C119.018 16.1625 119.281 16.8507 119.741 17.3154C120.201 17.7796 120.878 18.0421 121.749 18.0424C122.789 18.0229 123.602 17.6377 124.156 17.002C124.712 16.3635 125.021 15.4561 125.021 14.3721V9.02175H126.941ZM121.75 18.2238C119.934 18.2238 118.837 17.1262 118.837 15.2702V9.20318H117.28V15.6893C117.28 18.2238 118.757 19.7805 121.211 19.7805C122.955 19.7621 124.277 19.1022 125.021 17.7229C125.086 17.6027 125.147 17.477 125.203 17.3457V19.7206H126.76V9.20318H125.203V14.3721C125.203 16.6073 123.926 18.1839 121.75 18.2238ZM141 4.73096V19.9021H139.081V18.1047C138.222 19.3028 136.863 19.9819 135.171 19.9819C133.627 19.9819 132.311 19.4098 131.382 18.4258C130.453 17.4425 129.92 16.059 129.92 14.4519C129.92 12.8351 130.453 11.4562 131.379 10.4803C132.307 9.5036 133.618 8.94192 135.151 8.94192C136.843 8.94192 138.218 9.62095 139.081 10.8336V4.73096H141ZM139.262 11.4783C139.205 11.3689 139.145 11.2629 139.081 11.1604C138.268 9.86066 136.89 9.12335 135.151 9.12335C132.177 9.12335 130.102 11.2987 130.102 14.4519C130.102 17.5852 132.177 19.8005 135.171 19.8005C136.909 19.8005 138.271 19.0633 139.081 17.7797C139.144 17.6784 139.205 17.5736 139.262 17.4655V19.7206H140.819V4.91239H139.262V11.4783ZM135.47 18.222C137.58 18.222 139.081 16.6724 139.081 14.4918C139.081 12.2894 137.578 10.7217 135.47 10.7217C133.342 10.7217 131.84 12.2901 131.84 14.4918C131.84 16.6718 133.34 18.222 135.47 18.222ZM100.207 19.7206V4.91239H98.6502V19.7206H100.207ZM114.303 14.4519C114.303 11.3186 112.088 9.16327 108.974 9.16327C105.861 9.16327 103.646 11.3186 103.646 14.4519C103.646 17.6052 105.861 19.7805 108.974 19.7805C112.088 19.7805 114.303 17.6052 114.303 14.4519ZM105.203 14.4719C105.203 12.1768 106.779 10.5802 108.974 10.5802C111.17 10.5802 112.746 12.1768 112.746 14.4719C112.746 16.7869 111.17 18.3835 108.974 18.3835C106.779 18.3835 105.203 16.7869 105.203 14.4719ZM139.262 14.4918C139.262 16.767 137.685 18.4034 135.47 18.4034C133.235 18.4034 131.658 16.767 131.658 14.4918C131.658 12.1968 133.235 10.5403 135.47 10.5403C137.685 10.5403 139.262 12.1968 139.262 14.4918Z" fill="black"/>
</svg>
