<svg width="284" height="37" viewBox="0 0 284 37" fill="none" xmlns="http://www.w3.org/2000/svg">
<g clip-path="url(#clip0_20_199)">
<path d="M18.4226 0.0167599C18.4856 0.0168988 18.5485 0.0169681 18.6115 0.0170325C19.1946 0.0179002 19.7746 0.0238627 20.3544 0.0921578C20.411 0.0987535 20.4676 0.104993 20.5241 0.111181C21.1222 0.177187 21.7139 0.273245 22.3034 0.3936C22.3214 0.397274 22.3394 0.400948 22.358 0.404733C23.8134 0.703477 25.2265 1.19676 26.5622 1.84506C26.591 1.85898 26.6197 1.8729 26.6494 1.88724C27.0471 2.08021 27.4367 2.28506 27.8177 2.50929C27.8407 2.52285 27.8638 2.53641 27.8875 2.55039C28.7376 3.05349 29.5443 3.6251 30.304 4.25597C30.3255 4.27379 30.3255 4.27379 30.3475 4.29198C30.5111 4.42804 30.6711 4.56724 30.8276 4.71147C30.8809 4.75989 30.9347 4.80738 30.989 4.85456C31.2425 5.07561 31.4843 5.31032 31.7226 5.54752C31.7383 5.56311 31.754 5.57869 31.7702 5.59475C31.8621 5.68683 31.9489 5.78193 32.034 5.8803C32.1024 5.95844 32.1743 6.03335 32.2457 6.10873C32.3647 6.23518 32.4784 6.36386 32.5868 6.49957C32.6402 6.56542 32.6951 6.62961 32.7507 6.69362C32.8907 6.85488 33.0241 7.01965 33.1524 7.19038C33.1858 7.23471 33.2195 7.27882 33.2531 7.32293C33.7034 7.91472 34.1132 8.53478 34.489 9.17618C34.5061 9.20511 34.5061 9.20511 34.5236 9.23462C35.5111 10.9036 36.1884 12.733 36.9754 17.3437C36.9769 17.37 36.9769 17.37 36.9785 17.3967C36.9992 17.7573 37.005 18.1173 37.0046 18.4785C37.0046 18.5064 37.0046 18.5343 37.0046 18.5631C37.0039 19.0438 36.9918 19.5216 36.9508 20.0006C36.9492 20.0189 36.9476 20.0371 36.946 20.0558C36.7716 22.0712 36.293 24.0792 35.2652 26.3435C35.2272 26.4222 35.1902 26.5012 35.1533 26.5804C34.9996 26.9086 34.8306 27.2246 34.6489 27.5382C34.6046 27.6154 34.5621 27.6934 34.5197 27.7717C33.8675 28.9706 32.9968 30.0842 32.0657 31.0791C32.0256 31.1221 31.9858 31.1652 31.946 31.2084C31.7924 31.3747 31.6363 31.5381 31.4765 31.6985C31.4607 31.7144 31.4449 31.7302 31.4286 31.7466C31.3358 31.839 31.2401 31.9265 31.141 32.012C31.0583 32.0845 30.9792 32.1608 30.8995 32.2366C30.768 32.3607 30.6347 32.4799 30.4932 32.5925C30.433 32.6409 30.3743 32.6906 30.3158 32.7409C30.13 32.9005 29.9367 33.0493 29.741 33.1965C29.6911 33.2341 29.6414 33.2719 29.5917 33.3098C28.7053 33.983 27.751 34.5534 26.7591 35.0565C26.7311 35.0707 26.703 35.085 26.674 35.0997C24.8588 36.0162 22.8697 36.5898 20.5802 36.8831C20.5486 36.8868 20.517 36.8906 20.4844 36.8944C20.3769 36.9062 20.2694 36.9166 20.1617 36.9262C20.1256 36.9294 20.1256 36.9294 20.0888 36.9327C19.5847 36.9761 19.083 36.9843 18.5774 36.9832C18.5144 36.9831 18.4515 36.983 18.3885 36.9829C17.8054 36.9821 17.2254 36.9761 16.6455 36.9078C16.589 36.9012 16.5324 36.895 16.4758 36.8888C15.8777 36.8228 15.2861 36.7267 14.6966 36.6064C14.6786 36.6027 14.6606 36.599 14.642 36.5952C13.1866 36.2965 11.7735 35.8032 10.4378 35.1549C10.409 35.141 10.3802 35.1271 10.3506 35.1127C9.95288 34.9198 9.56331 34.7149 9.18229 34.4907C9.15925 34.4771 9.1362 34.4636 9.11246 34.4496C8.26241 33.9465 7.45566 33.3749 6.69593 32.744C6.6816 32.7321 6.66727 32.7202 6.6525 32.708C6.48888 32.5719 6.32885 32.4327 6.17233 32.2885C6.11908 32.2401 6.06531 32.1926 6.01097 32.1454C5.75751 31.9244 5.51564 31.6896 5.27735 31.4524C5.25379 31.4291 5.25379 31.4291 5.22975 31.4052C5.13791 31.3131 5.05105 31.218 4.96602 31.1197C4.89754 31.0415 4.82572 30.9666 4.75423 30.8912C4.63524 30.7648 4.52158 30.6361 4.41315 30.5004C4.35975 30.4345 4.30488 30.3704 4.2493 30.3063C4.10928 30.1451 3.97591 29.9803 3.84757 29.8096C3.81418 29.7653 3.78053 29.7211 3.74684 29.677C3.29663 29.0852 2.88675 28.4652 2.51097 27.8238C2.49955 27.8045 2.48812 27.7852 2.47635 27.7653C1.48893 26.0964 0.811612 24.267 0.02461 19.6562C0.0230849 19.63 0.0230842 19.63 0.0215283 19.6033C0.000828668 19.2426 -0.00498207 18.8827 -0.00462323 18.5215C-0.00460091 18.4796 -0.00460091 18.4796 -0.00457815 18.4369C-0.00388727 17.9561 0.00814523 17.4784 0.0492274 16.9993C0.0507823 16.9811 0.0523373 16.9629 0.0539393 16.9441C0.228426 14.9288 0.706967 12.9208 1.7348 10.6564C1.77276 10.5778 1.80982 10.4988 1.84668 10.4196C2.00036 10.0913 2.16939 9.77536 2.35109 9.46181C2.39533 9.38459 2.43785 9.30652 2.48025 9.22828C3.13246 8.02931 4.00327 6.91573 4.93439 5.92072C4.97414 5.8781 5.01364 5.83526 5.0531 5.79238C5.21085 5.62146 5.37161 5.45393 5.53584 5.28921C5.5528 5.27214 5.56977 5.25507 5.58725 5.23749C5.68333 5.14176 5.78204 5.05072 5.88476 4.96217C5.96281 4.89396 6.03756 4.82233 6.11281 4.75106C6.24 4.63154 6.36941 4.51721 6.50592 4.40828C6.56636 4.3596 6.62544 4.30963 6.68427 4.25902C6.87006 4.09946 7.06332 3.95069 7.25896 3.80344C7.30886 3.76583 7.3586 3.72802 7.4083 3.69014C8.29468 3.01694 9.24894 2.44656 10.2408 1.94347C10.2689 1.92922 10.297 1.91497 10.3259 1.9003C12.1412 0.983749 14.1303 0.41016 16.4198 0.116838C16.4672 0.111261 16.4672 0.111261 16.5156 0.105571C16.6231 0.0937245 16.7306 0.0833154 16.8383 0.0737866C16.8624 0.0716413 16.8864 0.069496 16.9112 0.0672857C17.4153 0.0239045 17.917 0.0156269 18.4226 0.0167599Z" fill="#E84142"/>
<path d="M19.0308 7.07039C19.2666 7.25865 19.427 7.53929 19.5724 7.79852C19.5963 7.84051 19.6202 7.8825 19.6441 7.92448C19.6689 7.96806 19.6936 8.01168 19.7182 8.05532C19.7911 8.18433 19.865 8.31282 19.9386 8.4414C19.9799 8.51344 20.0211 8.58554 20.0623 8.65764C20.0704 8.67199 20.0786 8.68635 20.0871 8.70113C20.1202 8.7592 20.1534 8.81726 20.1866 8.87533C20.2444 8.97665 20.3023 9.07796 20.3602 9.17926C20.3683 9.19354 20.3765 9.20782 20.3849 9.22254C20.5028 9.42881 20.6213 9.63473 20.7402 9.84041C20.9089 10.1323 21.0764 10.4248 21.2435 10.7175C21.3031 10.8218 21.3627 10.926 21.4225 11.0301C21.7704 11.637 21.7704 11.637 21.9322 11.9324C21.9589 11.9809 21.986 12.0292 22.0131 12.0775C22.3376 12.6609 22.4792 13.3894 22.3024 14.0467C22.2946 14.0712 22.2868 14.0957 22.2788 14.121C22.271 14.1473 22.2632 14.1736 22.2551 14.2007C22.1026 14.6694 21.834 15.0984 21.5895 15.5233C21.5407 15.6083 21.492 15.6934 21.4433 15.7785C21.4254 15.8098 21.4254 15.8098 21.4071 15.8417C21.296 16.0358 21.1868 16.231 21.0777 16.4262C20.9748 16.6101 20.8707 16.7931 20.7658 16.9759C20.67 17.143 20.5757 17.3109 20.4817 17.479C20.3636 17.6904 20.2444 17.9011 20.1239 18.1111C19.9931 18.3393 19.8637 18.5684 19.7344 18.7975C19.6676 18.9157 19.6008 19.0338 19.5339 19.1519C19.5073 19.1991 19.4806 19.2462 19.4539 19.2934C18.8939 20.2836 18.8939 20.2836 18.3338 21.2738C18.3206 21.2971 18.3074 21.3204 18.2938 21.3445C18.2672 21.3916 18.2405 21.4387 18.2139 21.4858C18.1469 21.6043 18.0799 21.7228 18.0129 21.8413C17.8851 22.0676 17.7569 22.2937 17.6276 22.5192C17.5207 22.7056 17.4154 22.8928 17.3107 23.0804C17.1463 23.3746 16.9788 23.6669 16.8092 23.9582C16.7798 24.0089 16.7504 24.0596 16.7211 24.1104C16.5593 24.3904 16.3958 24.6644 16.1983 24.9209C16.1846 24.939 16.171 24.9572 16.1569 24.9759C15.8 25.4187 15.1964 25.7172 14.6474 25.8065C14.6256 25.8105 14.6038 25.8145 14.5814 25.8186C14.3093 25.8638 14.0406 25.8628 13.7655 25.8625C13.712 25.8626 13.6585 25.8627 13.6049 25.8628C13.4604 25.8632 13.3159 25.8632 13.1714 25.8631C13.0504 25.8631 12.9294 25.8632 12.8084 25.8633C12.5228 25.8636 12.2372 25.8636 11.9516 25.8635C11.6577 25.8633 11.3638 25.8636 11.0699 25.8641C10.8168 25.8646 10.5638 25.8647 10.3107 25.8646C10.1599 25.8646 10.009 25.8647 9.85822 25.865C9.71635 25.8653 9.57449 25.8653 9.43262 25.865C9.38081 25.8649 9.329 25.865 9.27719 25.8652C8.44144 25.8682 8.44144 25.8682 8.14232 25.5812C7.98999 25.4092 7.90544 25.2002 7.88989 24.9701C7.92737 24.4634 8.30223 23.9685 8.55012 23.5409C8.62899 23.4046 8.70715 23.2678 8.78535 23.1311C8.79369 23.1166 8.80202 23.102 8.81061 23.087C8.94403 22.8539 9.0758 22.6199 9.20683 22.3854C9.34465 22.1389 9.48487 21.8938 9.62542 21.6489C9.69009 21.5362 9.75471 21.4234 9.81928 21.3107C9.82762 21.2961 9.83596 21.2815 9.84456 21.2665C9.97792 21.0335 10.1096 20.7996 10.2406 20.5652C10.3425 20.3829 10.4457 20.2014 10.5496 20.0202C10.6381 19.8659 10.7258 19.7112 10.8132 19.5563C10.9247 19.3588 11.0369 19.1618 11.1497 18.9651C11.2848 18.7292 11.4191 18.4929 11.5517 18.2555C11.7038 17.9834 11.8581 17.7125 12.0133 17.4421C12.078 17.3294 12.1426 17.2167 12.2072 17.1039C12.2155 17.0893 12.2239 17.0747 12.2324 17.0597C12.3659 16.8266 12.4976 16.5926 12.6287 16.3581C12.7665 16.1116 12.9067 15.8666 13.0472 15.6217C13.1119 15.5089 13.1765 15.3962 13.2411 15.2834C13.2494 15.2688 13.2578 15.2543 13.2664 15.2393C13.3997 15.0062 13.5315 14.7723 13.6624 14.5379C13.7643 14.3556 13.8675 14.1741 13.9714 13.993C14.0599 13.8386 14.1476 13.6839 14.235 13.529C14.3465 13.3316 14.4587 13.1346 14.5715 12.9378C14.7067 12.702 14.8409 12.4656 14.9736 12.2283C15.1256 11.9561 15.28 11.6853 15.4351 11.4149C15.4998 11.3022 15.5644 11.1894 15.629 11.0766C15.6373 11.062 15.6457 11.0475 15.6543 11.0325C15.7877 10.7993 15.9194 10.5653 16.0505 10.3309C16.1883 10.0844 16.3285 9.83933 16.4691 9.5944C16.5337 9.48167 16.5984 9.36892 16.6629 9.25614C16.6713 9.24155 16.6796 9.22695 16.6883 9.21192C16.8062 9.00592 16.9227 8.79921 17.0383 8.59191C17.8818 7.08176 17.8818 7.08176 18.261 6.94633C18.5306 6.90246 18.8013 6.91446 19.0308 7.07039Z" fill="#FEFEFE"/>
<path d="M25.3678 18.2741C25.6175 18.4851 25.7817 18.7652 25.9483 19.0428C25.9665 19.073 25.9848 19.1032 26.003 19.1334C26.1704 19.4112 26.3323 19.692 26.4936 19.9734C26.5641 20.096 26.6354 20.2183 26.7068 20.3405C26.7208 20.3643 26.7347 20.3882 26.7491 20.4128C26.8809 20.6382 27.013 20.8634 27.1452 21.0886C27.2687 21.299 27.3918 21.5096 27.5147 21.7203C27.6277 21.914 27.7411 22.1075 27.8546 22.3009C28.0117 22.5686 28.1685 22.8365 28.3248 23.1046C28.3815 23.2018 28.4383 23.2989 28.4952 23.396C29.3002 24.7695 29.3002 24.7695 29.2342 25.1306C29.1636 25.3936 29.0331 25.5866 28.8024 25.7327C28.5688 25.8629 28.2778 25.8631 28.0161 25.862C27.9883 25.862 27.9606 25.8621 27.932 25.8622C27.8399 25.8624 27.7479 25.8622 27.6559 25.8621C27.5895 25.8621 27.5231 25.8622 27.4567 25.8623C27.2957 25.8626 27.1346 25.8625 26.9736 25.8624C26.8426 25.8623 26.7116 25.8622 26.5806 25.8623C26.5526 25.8623 26.5526 25.8623 26.5239 25.8623C26.4859 25.8623 26.4479 25.8624 26.4099 25.8624C26.0541 25.8625 25.6983 25.8623 25.3426 25.8621C25.038 25.8619 24.7334 25.8619 24.4288 25.8621C24.0743 25.8624 23.7198 25.8625 23.3653 25.8623C23.3274 25.8623 23.2895 25.8623 23.2516 25.8623C23.233 25.8623 23.2144 25.8623 23.1952 25.8623C23.0645 25.8622 22.9338 25.8623 22.8032 25.8624C22.6437 25.8626 22.4842 25.8625 22.3247 25.8623C22.2435 25.8621 22.1623 25.8621 22.0811 25.8622C21.0985 25.8638 21.0985 25.8638 20.8094 25.6112C20.6266 25.4103 20.535 25.1809 20.5423 24.9097C20.5738 24.7022 20.6486 24.5234 20.7479 24.3397C20.7655 24.3066 20.7655 24.3066 20.7835 24.2728C20.916 24.0263 21.0581 23.7853 21.2006 23.5444C21.2732 23.4213 21.3452 23.2977 21.4172 23.1742C21.4459 23.1249 21.4747 23.0757 21.5034 23.0264C21.5247 22.9899 21.5247 22.9899 21.5465 22.9526C21.5892 22.8794 21.632 22.8063 21.6748 22.7331C21.8225 22.4803 21.9696 22.2271 22.1157 21.9734C22.2422 21.7535 22.3706 21.5348 22.5003 21.3168C22.6921 20.9946 22.8797 20.6702 23.0665 20.3451C23.303 19.9335 23.5416 19.5233 23.7851 19.1159C23.8259 19.0475 23.8664 18.9791 23.9069 18.9105C24.2971 18.2543 24.2971 18.2543 24.6251 18.1646C24.8771 18.1302 25.1558 18.1189 25.3678 18.2741Z" fill="#FEFEFE"/>
</g>
<path d="M52.371 13.936L51.198 20.905H53.59L52.417 13.936H52.371ZM55.085 10.578L59.087 27H54.533L54.096 24.125H50.692L50.255 27H45.77L49.703 10.578H55.085ZM58.307 14.557H62.516L63.689 23.504H63.735L64.885 14.557H69.163L66.127 27H61.251L58.307 14.557ZM74.3585 24.539C74.8185 24.539 75.1481 24.3703 75.3475 24.033C75.5468 23.6957 75.6465 23.182 75.6465 22.492V20.997H75.6005C75.4778 21.1657 75.2861 21.273 75.0255 21.319C74.7801 21.3497 74.5041 21.434 74.1975 21.572C73.8755 21.7253 73.6531 21.9323 73.5305 22.193C73.4078 22.4383 73.3465 22.768 73.3465 23.182C73.3465 23.596 73.4385 23.9257 73.6225 24.171C73.8065 24.4163 74.0518 24.539 74.3585 24.539ZM75.8995 27C75.8228 26.7853 75.7691 26.563 75.7385 26.333C75.7078 26.103 75.6771 25.8577 75.6465 25.597H75.6005C75.3705 26.149 75.0025 26.563 74.4965 26.839C74.0058 27.115 73.4385 27.253 72.7945 27.253C72.1658 27.253 71.6291 27.1687 71.1845 27C70.7551 26.8467 70.4025 26.609 70.1265 26.287C69.8505 25.965 69.6511 25.5817 69.5285 25.137C69.4058 24.6923 69.3445 24.2017 69.3445 23.665C69.3445 23.0823 69.3981 22.5763 69.5055 22.147C69.6281 21.7177 69.8198 21.3497 70.0805 21.043C70.3411 20.721 70.6938 20.4527 71.1385 20.238C71.5831 20.008 72.1351 19.8163 72.7945 19.663L74.4275 19.272C74.8721 19.1647 75.1865 19.0113 75.3705 18.812C75.5545 18.5973 75.6465 18.2983 75.6465 17.915C75.6465 17.1483 75.2938 16.765 74.5885 16.765C74.1898 16.765 73.8985 16.88 73.7145 17.11C73.5305 17.3247 73.4308 17.7617 73.4155 18.421H69.8275C69.8275 17.5163 69.9885 16.7957 70.3105 16.259C70.6325 15.707 71.0311 15.2853 71.5065 14.994C71.9818 14.6873 72.4955 14.488 73.0475 14.396C73.5995 14.2887 74.1131 14.235 74.5885 14.235C75.3091 14.235 75.9685 14.2963 76.5665 14.419C77.1798 14.5263 77.7011 14.7333 78.1305 15.04C78.5751 15.3313 78.9125 15.7377 79.1425 16.259C79.3878 16.765 79.5105 17.4243 79.5105 18.237V24.309C79.5105 24.8917 79.5335 25.4053 79.5795 25.85C79.6255 26.2947 79.7328 26.678 79.9015 27H75.8995ZM81.4195 10.578H85.5595V27H81.4195V10.578ZM91.7881 24.539C92.2481 24.539 92.5778 24.3703 92.7771 24.033C92.9765 23.6957 93.0761 23.182 93.0761 22.492V20.997H93.0301C92.9075 21.1657 92.7158 21.273 92.4551 21.319C92.2098 21.3497 91.9338 21.434 91.6271 21.572C91.3051 21.7253 91.0828 21.9323 90.9601 22.193C90.8375 22.4383 90.7761 22.768 90.7761 23.182C90.7761 23.596 90.8681 23.9257 91.0521 24.171C91.2361 24.4163 91.4815 24.539 91.7881 24.539ZM93.3291 27C93.2525 26.7853 93.1988 26.563 93.1681 26.333C93.1375 26.103 93.1068 25.8577 93.0761 25.597H93.0301C92.8001 26.149 92.4321 26.563 91.9261 26.839C91.4355 27.115 90.8681 27.253 90.2241 27.253C89.5955 27.253 89.0588 27.1687 88.6141 27C88.1848 26.8467 87.8321 26.609 87.5561 26.287C87.2801 25.965 87.0808 25.5817 86.9581 25.137C86.8355 24.6923 86.7741 24.2017 86.7741 23.665C86.7741 23.0823 86.8278 22.5763 86.9351 22.147C87.0578 21.7177 87.2495 21.3497 87.5101 21.043C87.7708 20.721 88.1235 20.4527 88.5681 20.238C89.0128 20.008 89.5648 19.8163 90.2241 19.663L91.8571 19.272C92.3018 19.1647 92.6161 19.0113 92.8001 18.812C92.9841 18.5973 93.0761 18.2983 93.0761 17.915C93.0761 17.1483 92.7235 16.765 92.0181 16.765C91.6195 16.765 91.3281 16.88 91.1441 17.11C90.9601 17.3247 90.8605 17.7617 90.8451 18.421H87.2571C87.2571 17.5163 87.4181 16.7957 87.7401 16.259C88.0621 15.707 88.4608 15.2853 88.9361 14.994C89.4115 14.6873 89.9251 14.488 90.4771 14.396C91.0291 14.2887 91.5428 14.235 92.0181 14.235C92.7388 14.235 93.3981 14.2963 93.9961 14.419C94.6095 14.5263 95.1308 14.7333 95.5601 15.04C96.0048 15.3313 96.3421 15.7377 96.5721 16.259C96.8175 16.765 96.9401 17.4243 96.9401 18.237V24.309C96.9401 24.8917 96.9631 25.4053 97.0091 25.85C97.0551 26.2947 97.1625 26.678 97.3311 27H93.3291ZM98.7801 14.557H102.782V16.075H102.828C103.365 14.8483 104.369 14.235 105.841 14.235C106.301 14.235 106.723 14.2887 107.106 14.396C107.505 14.488 107.85 14.6643 108.141 14.925C108.432 15.1857 108.662 15.5307 108.831 15.96C109 16.3893 109.084 16.9413 109.084 17.616V27H104.944V18.789C104.944 18.2677 104.867 17.892 104.714 17.662C104.561 17.432 104.3 17.317 103.932 17.317C103.564 17.317 103.303 17.432 103.15 17.662C102.997 17.892 102.92 18.2677 102.92 18.789V27H98.7801V14.557ZM116.916 19.433C116.916 18.927 116.893 18.5207 116.847 18.214C116.801 17.892 116.732 17.6313 116.64 17.432C116.472 17.0793 116.165 16.903 115.72 16.903C115.49 16.903 115.291 16.9643 115.122 17.087C114.969 17.1943 114.846 17.4013 114.754 17.708C114.662 17.9993 114.593 18.398 114.547 18.904C114.517 19.3947 114.501 20.0233 114.501 20.79C114.501 21.5567 114.517 22.193 114.547 22.699C114.593 23.1897 114.662 23.5807 114.754 23.872C114.846 24.1633 114.969 24.3703 115.122 24.493C115.291 24.6003 115.49 24.654 115.72 24.654C116.104 24.654 116.395 24.5083 116.594 24.217C116.809 23.9257 116.916 23.389 116.916 22.607V21.802H120.642C120.642 22.7833 120.558 23.619 120.389 24.309C120.221 24.999 119.937 25.5663 119.538 26.011C118.756 26.839 117.484 27.253 115.72 27.253C114.923 27.253 114.195 27.184 113.535 27.046C112.876 26.908 112.309 26.6167 111.833 26.172C111.373 25.712 111.013 25.0757 110.752 24.263C110.492 23.435 110.361 22.3463 110.361 20.997C110.361 19.525 110.507 18.3443 110.798 17.455C111.09 16.5657 111.481 15.8833 111.971 15.408C112.477 14.9327 113.068 14.6183 113.742 14.465C114.417 14.3117 115.145 14.235 115.927 14.235C116.847 14.235 117.606 14.3653 118.204 14.626C118.818 14.8713 119.301 15.224 119.653 15.684C120.021 16.1287 120.274 16.673 120.412 17.317C120.566 17.9457 120.642 18.651 120.642 19.433H116.916ZM121.803 10.578H125.943V15.937H125.989C126.341 15.2777 126.778 14.833 127.3 14.603C127.836 14.3577 128.358 14.235 128.864 14.235C129.293 14.235 129.699 14.2887 130.083 14.396C130.481 14.5033 130.826 14.6873 131.118 14.948C131.424 15.2087 131.662 15.5613 131.831 16.006C132.015 16.4353 132.107 16.972 132.107 17.616V27H127.967V18.789C127.967 18.2677 127.89 17.892 127.737 17.662C127.583 17.432 127.323 17.317 126.955 17.317C126.587 17.317 126.326 17.432 126.173 17.662C126.019 17.892 125.943 18.2677 125.943 18.789V27H121.803V10.578ZM139.801 18.674C139.801 18.0147 139.716 17.5317 139.548 17.225C139.394 16.9183 139.095 16.765 138.651 16.765C138.221 16.765 137.922 16.9183 137.754 17.225C137.6 17.5317 137.524 18.0147 137.524 18.674V19.226H139.801V18.674ZM137.524 21.48V23.113C137.524 23.7877 137.639 24.24 137.869 24.47C138.099 24.6847 138.359 24.792 138.651 24.792C139.019 24.792 139.302 24.6463 139.502 24.355C139.716 24.0483 139.824 23.4733 139.824 22.63H143.55C143.519 24.1633 143.128 25.321 142.377 26.103C141.625 26.8697 140.391 27.253 138.674 27.253C137.677 27.253 136.841 27.1457 136.167 26.931C135.492 26.701 134.948 26.333 134.534 25.827C134.12 25.3057 133.821 24.631 133.637 23.803C133.468 22.975 133.384 21.9707 133.384 20.79C133.384 19.594 133.483 18.582 133.683 17.754C133.882 16.926 134.196 16.2513 134.626 15.73C135.055 15.2087 135.599 14.833 136.259 14.603C136.933 14.3577 137.738 14.235 138.674 14.235C139.502 14.235 140.222 14.3347 140.836 14.534C141.464 14.7333 141.986 15.0707 142.4 15.546C142.829 16.006 143.143 16.6193 143.343 17.386C143.557 18.1373 143.665 19.0803 143.665 20.215V21.48H137.524Z" fill="black"/>
<path d="M153.023 25.4H156.183C156.397 25.4 156.663 25.3867 156.983 25.36C157.303 25.32 157.643 25.24 158.003 25.12C158.363 24.9867 158.717 24.8 159.063 24.56C159.423 24.32 159.743 23.9933 160.023 23.58C160.303 23.1667 160.53 22.6533 160.703 22.04C160.89 21.4133 160.983 20.66 160.983 19.78C160.983 18.9267 160.897 18.1667 160.723 17.5C160.563 16.82 160.29 16.2467 159.903 15.78C159.53 15.3 159.043 14.94 158.443 14.7C157.843 14.4467 157.103 14.32 156.223 14.32H153.023V25.4ZM151.123 12.72H156.023C158.223 12.72 159.917 13.28 161.103 14.4C162.29 15.52 162.883 17.2267 162.883 19.52C162.883 20.72 162.75 21.7867 162.483 22.72C162.217 23.64 161.803 24.42 161.243 25.06C160.683 25.6867 159.97 26.1667 159.103 26.5C158.237 26.8333 157.21 27 156.023 27H151.123V12.72ZM172.106 20.84C172.079 20.44 171.986 20.06 171.826 19.7C171.679 19.34 171.472 19.0333 171.206 18.78C170.952 18.5133 170.646 18.3067 170.286 18.16C169.939 18 169.552 17.92 169.126 17.92C168.686 17.92 168.286 18 167.926 18.16C167.579 18.3067 167.279 18.5133 167.026 18.78C166.772 19.0467 166.572 19.36 166.426 19.72C166.279 20.0667 166.192 20.44 166.166 20.84H172.106ZM173.746 23.72C173.519 24.88 173.019 25.7533 172.246 26.34C171.472 26.9267 170.499 27.22 169.326 27.22C168.499 27.22 167.779 27.0867 167.166 26.82C166.566 26.5533 166.059 26.18 165.646 25.7C165.232 25.22 164.919 24.6467 164.706 23.98C164.506 23.3133 164.392 22.5867 164.366 21.8C164.366 21.0133 164.486 20.2933 164.726 19.64C164.966 18.9867 165.299 18.42 165.726 17.94C166.166 17.46 166.679 17.0867 167.266 16.82C167.866 16.5533 168.519 16.42 169.226 16.42C170.146 16.42 170.906 16.6133 171.506 17C172.119 17.3733 172.606 17.8533 172.966 18.44C173.339 19.0267 173.592 19.6667 173.726 20.36C173.872 21.0533 173.932 21.7133 173.906 22.34H166.166C166.152 22.7933 166.206 23.2267 166.326 23.64C166.446 24.04 166.639 24.4 166.906 24.72C167.172 25.0267 167.512 25.2733 167.926 25.46C168.339 25.6467 168.826 25.74 169.386 25.74C170.106 25.74 170.692 25.5733 171.146 25.24C171.612 24.9067 171.919 24.4 172.066 23.72H173.746ZM180.328 27H178.508L174.668 16.66H176.568L179.468 25.28H179.508L182.328 16.66H184.108L180.328 27ZM192.848 20.84C192.821 20.44 192.728 20.06 192.568 19.7C192.421 19.34 192.214 19.0333 191.948 18.78C191.694 18.5133 191.388 18.3067 191.028 18.16C190.681 18 190.294 17.92 189.868 17.92C189.428 17.92 189.028 18 188.668 18.16C188.321 18.3067 188.021 18.5133 187.768 18.78C187.514 19.0467 187.314 19.36 187.168 19.72C187.021 20.0667 186.934 20.44 186.908 20.84H192.848ZM194.488 23.72C194.261 24.88 193.761 25.7533 192.988 26.34C192.214 26.9267 191.241 27.22 190.068 27.22C189.241 27.22 188.521 27.0867 187.908 26.82C187.308 26.5533 186.801 26.18 186.388 25.7C185.974 25.22 185.661 24.6467 185.448 23.98C185.248 23.3133 185.134 22.5867 185.108 21.8C185.108 21.0133 185.228 20.2933 185.468 19.64C185.708 18.9867 186.041 18.42 186.468 17.94C186.908 17.46 187.421 17.0867 188.008 16.82C188.608 16.5533 189.261 16.42 189.968 16.42C190.888 16.42 191.648 16.6133 192.248 17C192.861 17.3733 193.348 17.8533 193.708 18.44C194.081 19.0267 194.334 19.6667 194.468 20.36C194.614 21.0533 194.674 21.7133 194.648 22.34H186.908C186.894 22.7933 186.948 23.2267 187.068 23.64C187.188 24.04 187.381 24.4 187.648 24.72C187.914 25.0267 188.254 25.2733 188.668 25.46C189.081 25.6467 189.568 25.74 190.128 25.74C190.848 25.74 191.434 25.5733 191.888 25.24C192.354 24.9067 192.661 24.4 192.808 23.72H194.488ZM196.51 12.72H198.21V27H196.51V12.72ZM202.083 21.84C202.083 22.4667 202.163 23.0267 202.323 23.52C202.497 24 202.73 24.4067 203.023 24.74C203.317 25.06 203.657 25.3067 204.043 25.48C204.443 25.6533 204.863 25.74 205.303 25.74C205.743 25.74 206.157 25.6533 206.543 25.48C206.943 25.3067 207.29 25.06 207.583 24.74C207.877 24.4067 208.103 24 208.263 23.52C208.437 23.0267 208.523 22.4667 208.523 21.84C208.523 21.2133 208.437 20.66 208.263 20.18C208.103 19.6867 207.877 19.2733 207.583 18.94C207.29 18.6067 206.943 18.3533 206.543 18.18C206.157 18.0067 205.743 17.92 205.303 17.92C204.863 17.92 204.443 18.0067 204.043 18.18C203.657 18.3533 203.317 18.6067 203.023 18.94C202.73 19.2733 202.497 19.6867 202.323 20.18C202.163 20.66 202.083 21.2133 202.083 21.84ZM200.283 21.84C200.283 21.08 200.39 20.3733 200.603 19.72C200.817 19.0533 201.137 18.48 201.563 18C201.99 17.5067 202.517 17.12 203.143 16.84C203.77 16.56 204.49 16.42 205.303 16.42C206.13 16.42 206.85 16.56 207.463 16.84C208.09 17.12 208.617 17.5067 209.043 18C209.47 18.48 209.79 19.0533 210.003 19.72C210.217 20.3733 210.323 21.08 210.323 21.84C210.323 22.6 210.217 23.3067 210.003 23.96C209.79 24.6133 209.47 25.1867 209.043 25.68C208.617 26.16 208.09 26.54 207.463 26.82C206.85 27.0867 206.13 27.22 205.303 27.22C204.49 27.22 203.77 27.0867 203.143 26.82C202.517 26.54 201.99 26.16 201.563 25.68C201.137 25.1867 200.817 24.6133 200.603 23.96C200.39 23.3067 200.283 22.6 200.283 21.84ZM212.388 16.66H214.088V18.06H214.128C214.408 17.4867 214.848 17.0733 215.448 16.82C216.048 16.5533 216.708 16.42 217.428 16.42C218.228 16.42 218.921 16.5667 219.508 16.86C220.108 17.1533 220.601 17.5533 220.988 18.06C221.388 18.5533 221.688 19.1267 221.888 19.78C222.088 20.4333 222.188 21.1267 222.188 21.86C222.188 22.5933 222.088 23.2867 221.888 23.94C221.701 24.5933 221.408 25.1667 221.008 25.66C220.621 26.14 220.128 26.52 219.528 26.8C218.941 27.08 218.255 27.22 217.468 27.22C217.215 27.22 216.928 27.1933 216.608 27.14C216.301 27.0867 215.995 27 215.688 26.88C215.381 26.76 215.088 26.6 214.808 26.4C214.541 26.1867 214.315 25.9267 214.128 25.62H214.088V30.94H212.388V16.66ZM220.388 21.74C220.388 21.26 220.321 20.7933 220.188 20.34C220.068 19.8733 219.875 19.46 219.608 19.1C219.355 18.74 219.021 18.4533 218.608 18.24C218.208 18.0267 217.735 17.92 217.188 17.92C216.615 17.92 216.128 18.0333 215.728 18.26C215.328 18.4867 215.001 18.7867 214.748 19.16C214.495 19.52 214.308 19.9333 214.188 20.4C214.081 20.8667 214.028 21.34 214.028 21.82C214.028 22.3267 214.088 22.82 214.208 23.3C214.328 23.7667 214.515 24.18 214.768 24.54C215.035 24.9 215.375 25.1933 215.788 25.42C216.201 25.6333 216.701 25.74 217.288 25.74C217.875 25.74 218.361 25.6267 218.748 25.4C219.148 25.1733 219.468 24.8733 219.708 24.5C219.948 24.1267 220.121 23.7 220.228 23.22C220.335 22.74 220.388 22.2467 220.388 21.74ZM231.363 20.84C231.337 20.44 231.243 20.06 231.083 19.7C230.937 19.34 230.73 19.0333 230.463 18.78C230.21 18.5133 229.903 18.3067 229.543 18.16C229.197 18 228.81 17.92 228.383 17.92C227.943 17.92 227.543 18 227.183 18.16C226.837 18.3067 226.537 18.5133 226.283 18.78C226.03 19.0467 225.83 19.36 225.683 19.72C225.537 20.0667 225.45 20.44 225.423 20.84H231.363ZM233.003 23.72C232.777 24.88 232.277 25.7533 231.503 26.34C230.73 26.9267 229.757 27.22 228.583 27.22C227.757 27.22 227.037 27.0867 226.423 26.82C225.823 26.5533 225.317 26.18 224.903 25.7C224.49 25.22 224.177 24.6467 223.963 23.98C223.763 23.3133 223.65 22.5867 223.623 21.8C223.623 21.0133 223.743 20.2933 223.983 19.64C224.223 18.9867 224.557 18.42 224.983 17.94C225.423 17.46 225.937 17.0867 226.523 16.82C227.123 16.5533 227.777 16.42 228.483 16.42C229.403 16.42 230.163 16.6133 230.763 17C231.377 17.3733 231.863 17.8533 232.223 18.44C232.597 19.0267 232.85 19.6667 232.983 20.36C233.13 21.0533 233.19 21.7133 233.163 22.34H225.423C225.41 22.7933 225.463 23.2267 225.583 23.64C225.703 24.04 225.897 24.4 226.163 24.72C226.43 25.0267 226.77 25.2733 227.183 25.46C227.597 25.6467 228.083 25.74 228.643 25.74C229.363 25.74 229.95 25.5733 230.403 25.24C230.87 24.9067 231.177 24.4 231.323 23.72H233.003ZM234.866 16.66H236.466V18.84H236.506C236.919 18 237.426 17.38 238.026 16.98C238.626 16.58 239.386 16.3933 240.306 16.42V18.22C239.626 18.22 239.046 18.3133 238.566 18.5C238.086 18.6867 237.699 18.96 237.406 19.32C237.112 19.68 236.899 20.12 236.766 20.64C236.632 21.1467 236.566 21.7333 236.566 22.4V27H234.866V16.66ZM247.432 12.72H249.332V18.86H256.852V12.72H258.752V27H256.852V20.46H249.332V27H247.432V12.72ZM270.146 27H268.546V25.36H268.506C268.146 26 267.686 26.4733 267.126 26.78C266.566 27.0733 265.906 27.22 265.146 27.22C264.466 27.22 263.899 27.1333 263.446 26.96C262.992 26.7733 262.626 26.5133 262.346 26.18C262.066 25.8467 261.866 25.4533 261.746 25C261.639 24.5333 261.586 24.02 261.586 23.46V16.66H263.286V23.66C263.286 24.3 263.472 24.8067 263.846 25.18C264.219 25.5533 264.732 25.74 265.386 25.74C265.906 25.74 266.352 25.66 266.726 25.5C267.112 25.34 267.432 25.1133 267.686 24.82C267.939 24.5267 268.126 24.1867 268.246 23.8C268.379 23.4 268.446 22.9667 268.446 22.5V16.66H270.146V27ZM272.759 12.72H274.459V18.06H274.499C274.779 17.4867 275.219 17.0733 275.819 16.82C276.419 16.5533 277.079 16.42 277.799 16.42C278.599 16.42 279.292 16.5667 279.879 16.86C280.479 17.1533 280.972 17.5533 281.359 18.06C281.759 18.5533 282.059 19.1267 282.259 19.78C282.459 20.4333 282.559 21.1267 282.559 21.86C282.559 22.5933 282.459 23.2867 282.259 23.94C282.072 24.5933 281.779 25.1667 281.379 25.66C280.992 26.14 280.499 26.52 279.899 26.8C279.312 27.08 278.626 27.22 277.839 27.22C277.586 27.22 277.299 27.1933 276.979 27.14C276.672 27.0867 276.366 27 276.059 26.88C275.752 26.76 275.459 26.6 275.179 26.4C274.912 26.1867 274.686 25.9267 274.499 25.62H274.459V27H272.759V12.72ZM280.759 21.74C280.759 21.26 280.692 20.7933 280.559 20.34C280.439 19.8733 280.246 19.46 279.979 19.1C279.726 18.74 279.392 18.4533 278.979 18.24C278.579 18.0267 278.106 17.92 277.559 17.92C276.986 17.92 276.499 18.0333 276.099 18.26C275.699 18.4867 275.372 18.7867 275.119 19.16C274.866 19.52 274.679 19.9333 274.559 20.4C274.452 20.8667 274.399 21.34 274.399 21.82C274.399 22.3267 274.459 22.82 274.579 23.3C274.699 23.7667 274.886 24.18 275.139 24.54C275.406 24.9 275.746 25.1933 276.159 25.42C276.572 25.6333 277.072 25.74 277.659 25.74C278.246 25.74 278.732 25.6267 279.119 25.4C279.519 25.1733 279.839 24.8733 280.079 24.5C280.319 24.1267 280.492 23.7 280.599 23.22C280.706 22.74 280.759 22.2467 280.759 21.74Z" fill="#626161"/>
<defs>
<clipPath id="clip0_20_199">
<rect width="37" height="37" fill="white"/>
</clipPath>
</defs>
</svg>
